<svg xmlns="http://www.w3.org/2000/svg" viewBox="0 0 520 420" width="520" height="420" fill="none">
  <defs>
    <linearGradient id="heroBg" x1="0" y1="0" x2="1" y2="1">
      <stop offset="0%" stop-color="#15243C" stop-opacity="0.55"/>
      <stop offset="100%" stop-color="#07101F" stop-opacity="0"/>
    </linearGradient>
    <linearGradient id="heroBar" x1="0" y1="0" x2="1" y2="0">
      <stop offset="0%" stop-color="#00D4FF"/>
      <stop offset="100%" stop-color="#1EB53A"/>
    </linearGradient>
    <linearGradient id="heroBar2" x1="0" y1="0" x2="1" y2="0">
      <stop offset="0%" stop-color="#00D4FF" stop-opacity="0.85"/>
      <stop offset="100%" stop-color="#00D4FF" stop-opacity="0.35"/>
    </linearGradient>
    <linearGradient id="heroSil" x1="0" y1="1" x2="1" y2="0">
      <stop offset="0%" stop-color="#1F3354"/>
      <stop offset="100%" stop-color="#00D4FF" stop-opacity="0.7"/>
    </linearGradient>
    <linearGradient id="heroEkg" x1="0" y1="0" x2="1" y2="0">
      <stop offset="0%" stop-color="#00D4FF" stop-opacity="0"/>
      <stop offset="25%" stop-color="#00D4FF"/>
      <stop offset="75%" stop-color="#1EB53A"/>
      <stop offset="100%" stop-color="#1EB53A" stop-opacity="0"/>
    </linearGradient>
    <radialGradient id="heroGlow" cx="0.3" cy="0.7" r="0.6">
      <stop offset="0%" stop-color="#00D4FF" stop-opacity="0.18"/>
      <stop offset="100%" stop-color="#00D4FF" stop-opacity="0"/>
    </radialGradient>
    <pattern id="heroDots" x="0" y="0" width="22" height="22" patternUnits="userSpaceOnUse">
      <circle cx="1.4" cy="1.4" r="1.1" fill="#1F3354" opacity="0.55"/>
    </pattern>
  </defs>

  <rect x="0" y="0" width="520" height="420" rx="20" fill="url(#heroBg)"/>
  <rect x="0" y="0" width="520" height="420" rx="20" fill="url(#heroDots)"/>
  <ellipse cx="170" cy="290" rx="220" ry="160" fill="url(#heroGlow)"/>

  <g opacity="0.9">
    <path d="M138 120 L138 86 L168 70 L196 84 L196 118 L172 134 L172 168 L210 196 L186 246 L162 226 L162 268 L184 320 L160 330 L132 280 L132 240 L114 220 L106 184 L120 156 Z"
          fill="url(#heroSil)" opacity="0.95"/>
    <path d="M168 70 a14 14 0 1 1 0.1 0 Z" fill="#1F3354"/>
    <circle cx="168" cy="62" r="14" fill="url(#heroSil)"/>
  </g>

  <g transform="translate(248,118)">
    <rect x="0" y="0" width="240" height="34" rx="6" fill="#0E1B30" opacity="0.75"/>
    <rect x="0" y="0" width="232" height="34" rx="6" fill="url(#heroBar)"/>
    <rect x="14" y="13" width="120" height="8" rx="3" fill="#07101F" opacity="0.55"/>

    <rect x="0" y="48" width="240" height="34" rx="6" fill="#0E1B30" opacity="0.75"/>
    <rect x="0" y="48" width="184" height="34" rx="6" fill="url(#heroBar2)"/>
    <rect x="14" y="61" width="96" height="8" rx="3" fill="#07101F" opacity="0.45"/>

    <rect x="0" y="96" width="240" height="34" rx="6" fill="#0E1B30" opacity="0.75"/>
    <rect x="0" y="96" width="138" height="34" rx="6" fill="url(#heroBar2)" opacity="0.75"/>
    <rect x="14" y="109" width="74" height="8" rx="3" fill="#07101F" opacity="0.4"/>

    <rect x="0" y="144" width="240" height="34" rx="6" fill="#0E1B30" opacity="0.75"/>
    <rect x="0" y="144" width="92" height="34" rx="6" fill="#1EB53A" opacity="0.7"/>
    <rect x="14" y="157" width="50" height="8" rx="3" fill="#07101F" opacity="0.4"/>
  </g>

  <path d="M30 340 L120 340 L140 320 L156 360 L176 296 L196 348 L216 340 L300 340 L320 320 L336 360 L360 308 L380 348 L400 340 L500 340"
        stroke="url(#heroEkg)" stroke-width="2.4" stroke-linecap="round" stroke-linejoin="round" fill="none"/>

  <g opacity="0.55">
    <circle cx="430" cy="60" r="3" fill="#00D4FF"/>
    <circle cx="468" cy="92" r="2" fill="#1EB53A"/>
    <circle cx="76" cy="62" r="2.5" fill="#00D4FF"/>
    <circle cx="44" cy="160" r="2" fill="#1EB53A"/>
  </g>
</svg>
